<mxfile host="app.diagrams.net" modified="2021-03-19T13:00:39.327Z" agent="5.0 (Windows NT 10.0; Win64; x64) AppleWebKit/537.36 (KHTML, like Gecko) Chrome/89.0.4389.90 Safari/537.36" etag="GzgUeeyGQQzqFqBpZ8KK" version="14.4.9" type="github" pages="3">
  <diagram id="X4qCYe-2xiD_-UCAUjqI" name="Home Page">
    <mxGraphModel dx="1422" dy="762" grid="1" gridSize="10" guides="1" tooltips="1" connect="1" arrows="1" fold="1" page="1" pageScale="1" pageWidth="850" pageHeight="1100" math="0" shadow="0">
      <root>
        <mxCell id="0" />
        <mxCell id="1" parent="0" />
        <mxCell id="ExXf1PMvxL1uijans8O3-2" value="" style="rounded=1;whiteSpace=wrap;html=1;" parent="1" vertex="1">
          <mxGeometry x="330" y="210" width="210" height="40" as="geometry" />
        </mxCell>
        <mxCell id="ExXf1PMvxL1uijans8O3-3" value="Escape" style="text;html=1;strokeColor=none;fillColor=none;align=center;verticalAlign=middle;whiteSpace=wrap;rounded=0;" parent="1" vertex="1">
          <mxGeometry x="415" y="220" width="40" height="20" as="geometry" />
        </mxCell>
        <mxCell id="ExXf1PMvxL1uijans8O3-4" value="" style="rounded=1;whiteSpace=wrap;html=1;" parent="1" vertex="1">
          <mxGeometry x="40" y="280" width="120" height="80" as="geometry" />
        </mxCell>
        <mxCell id="ExXf1PMvxL1uijans8O3-5" value="" style="rounded=1;whiteSpace=wrap;html=1;" parent="1" vertex="1">
          <mxGeometry x="200" y="280" width="120" height="80" as="geometry" />
        </mxCell>
        <mxCell id="ExXf1PMvxL1uijans8O3-6" value="" style="rounded=1;whiteSpace=wrap;html=1;" parent="1" vertex="1">
          <mxGeometry x="360" y="280" width="120" height="80" as="geometry" />
        </mxCell>
        <mxCell id="ExXf1PMvxL1uijans8O3-7" value="Pics" style="text;html=1;strokeColor=none;fillColor=none;align=center;verticalAlign=middle;whiteSpace=wrap;rounded=0;" parent="1" vertex="1">
          <mxGeometry x="80" y="310" width="40" height="20" as="geometry" />
        </mxCell>
        <mxCell id="ExXf1PMvxL1uijans8O3-8" value="Videos" style="text;html=1;strokeColor=none;fillColor=none;align=center;verticalAlign=middle;whiteSpace=wrap;rounded=0;" parent="1" vertex="1">
          <mxGeometry x="240" y="310" width="40" height="20" as="geometry" />
        </mxCell>
        <mxCell id="ExXf1PMvxL1uijans8O3-9" value="Stories" style="text;html=1;strokeColor=none;fillColor=none;align=center;verticalAlign=middle;whiteSpace=wrap;rounded=0;" parent="1" vertex="1">
          <mxGeometry x="400" y="310" width="40" height="20" as="geometry" />
        </mxCell>
        <mxCell id="ExXf1PMvxL1uijans8O3-11" value="" style="rounded=1;whiteSpace=wrap;html=1;" parent="1" vertex="1">
          <mxGeometry x="520" y="280" width="120" height="80" as="geometry" />
        </mxCell>
        <mxCell id="ExXf1PMvxL1uijans8O3-13" value="" style="whiteSpace=wrap;html=1;aspect=fixed;" parent="1" vertex="1">
          <mxGeometry x="40" y="400" width="160" height="160" as="geometry" />
        </mxCell>
        <mxCell id="ExXf1PMvxL1uijans8O3-14" value="" style="rounded=1;whiteSpace=wrap;html=1;" parent="1" vertex="1">
          <mxGeometry x="240" y="400" width="560" height="160" as="geometry" />
        </mxCell>
        <mxCell id="ExXf1PMvxL1uijans8O3-17" value="" style="rounded=1;whiteSpace=wrap;html=1;" parent="1" vertex="1">
          <mxGeometry x="40" y="840" width="560" height="160" as="geometry" />
        </mxCell>
        <mxCell id="ExXf1PMvxL1uijans8O3-18" value="" style="whiteSpace=wrap;html=1;aspect=fixed;" parent="1" vertex="1">
          <mxGeometry x="40" y="600" width="200" height="200" as="geometry" />
        </mxCell>
        <mxCell id="ExXf1PMvxL1uijans8O3-19" value="" style="whiteSpace=wrap;html=1;aspect=fixed;" parent="1" vertex="1">
          <mxGeometry x="320" y="600" width="200" height="200" as="geometry" />
        </mxCell>
        <mxCell id="ExXf1PMvxL1uijans8O3-21" value="" style="whiteSpace=wrap;html=1;aspect=fixed;" parent="1" vertex="1">
          <mxGeometry x="600" y="600" width="200" height="200" as="geometry" />
        </mxCell>
        <mxCell id="ExXf1PMvxL1uijans8O3-22" value="" style="whiteSpace=wrap;html=1;aspect=fixed;" parent="1" vertex="1">
          <mxGeometry x="640" y="840" width="160" height="160" as="geometry" />
        </mxCell>
        <mxCell id="nf63zwgyLyhr1G67cmIo-2" value="" style="rounded=1;whiteSpace=wrap;html=1;" vertex="1" parent="1">
          <mxGeometry x="680" y="280" width="120" height="80" as="geometry" />
        </mxCell>
        <mxCell id="nf63zwgyLyhr1G67cmIo-3" value="Explore" style="text;html=1;strokeColor=none;fillColor=none;align=center;verticalAlign=middle;whiteSpace=wrap;rounded=0;" vertex="1" parent="1">
          <mxGeometry x="720" y="310" width="40" height="20" as="geometry" />
        </mxCell>
        <mxCell id="nf63zwgyLyhr1G67cmIo-4" value="GIFs" style="text;html=1;strokeColor=none;fillColor=none;align=center;verticalAlign=middle;whiteSpace=wrap;rounded=0;" vertex="1" parent="1">
          <mxGeometry x="560" y="310" width="40" height="20" as="geometry" />
        </mxCell>
      </root>
    </mxGraphModel>
  </diagram>
  <diagram id="7IwEUxnQILRDY0oiLc7r" name="Photos">
    <mxGraphModel dx="1422" dy="762" grid="1" gridSize="10" guides="1" tooltips="1" connect="1" arrows="1" fold="1" page="1" pageScale="1" pageWidth="827" pageHeight="1169" math="0" shadow="0">
      <root>
        <mxCell id="s2AOO2nK8_PHTesZww2k-0" />
        <mxCell id="s2AOO2nK8_PHTesZww2k-1" parent="s2AOO2nK8_PHTesZww2k-0" />
        <mxCell id="FiuJ6KNZg-1f4PSV_Jv_-0" value="" style="rounded=1;whiteSpace=wrap;html=1;" vertex="1" parent="s2AOO2nK8_PHTesZww2k-1">
          <mxGeometry x="309" y="40" width="210" height="40" as="geometry" />
        </mxCell>
        <mxCell id="et4iQAk7o5qqhviSuGii-0" value="Escape" style="text;html=1;strokeColor=none;fillColor=none;align=center;verticalAlign=middle;whiteSpace=wrap;rounded=0;" vertex="1" parent="s2AOO2nK8_PHTesZww2k-1">
          <mxGeometry x="399" y="50" width="40" height="20" as="geometry" />
        </mxCell>
        <mxCell id="xqbh5o03ujRor4jRnx38-0" value="" style="whiteSpace=wrap;html=1;aspect=fixed;" vertex="1" parent="s2AOO2nK8_PHTesZww2k-1">
          <mxGeometry x="40" y="200" width="200" height="200" as="geometry" />
        </mxCell>
        <mxCell id="xqbh5o03ujRor4jRnx38-1" value="" style="whiteSpace=wrap;html=1;aspect=fixed;" vertex="1" parent="s2AOO2nK8_PHTesZww2k-1">
          <mxGeometry x="40" y="440" width="200" height="200" as="geometry" />
        </mxCell>
        <mxCell id="xqbh5o03ujRor4jRnx38-2" value="" style="whiteSpace=wrap;html=1;aspect=fixed;" vertex="1" parent="s2AOO2nK8_PHTesZww2k-1">
          <mxGeometry x="600" y="200" width="200" height="200" as="geometry" />
        </mxCell>
        <mxCell id="xqbh5o03ujRor4jRnx38-3" value="" style="whiteSpace=wrap;html=1;aspect=fixed;" vertex="1" parent="s2AOO2nK8_PHTesZww2k-1">
          <mxGeometry x="319" y="200" width="200" height="200" as="geometry" />
        </mxCell>
        <mxCell id="xqbh5o03ujRor4jRnx38-4" value="" style="whiteSpace=wrap;html=1;aspect=fixed;" vertex="1" parent="s2AOO2nK8_PHTesZww2k-1">
          <mxGeometry x="600" y="440" width="200" height="200" as="geometry" />
        </mxCell>
        <mxCell id="xqbh5o03ujRor4jRnx38-5" value="" style="whiteSpace=wrap;html=1;aspect=fixed;" vertex="1" parent="s2AOO2nK8_PHTesZww2k-1">
          <mxGeometry x="319" y="440" width="200" height="200" as="geometry" />
        </mxCell>
        <mxCell id="xqbh5o03ujRor4jRnx38-6" value="" style="whiteSpace=wrap;html=1;aspect=fixed;" vertex="1" parent="s2AOO2nK8_PHTesZww2k-1">
          <mxGeometry x="40" y="680" width="200" height="200" as="geometry" />
        </mxCell>
        <mxCell id="xqbh5o03ujRor4jRnx38-7" value="" style="whiteSpace=wrap;html=1;aspect=fixed;" vertex="1" parent="s2AOO2nK8_PHTesZww2k-1">
          <mxGeometry x="600" y="680" width="200" height="200" as="geometry" />
        </mxCell>
        <mxCell id="xqbh5o03ujRor4jRnx38-8" value="" style="whiteSpace=wrap;html=1;aspect=fixed;" vertex="1" parent="s2AOO2nK8_PHTesZww2k-1">
          <mxGeometry x="319" y="680" width="200" height="200" as="geometry" />
        </mxCell>
        <mxCell id="xqbh5o03ujRor4jRnx38-9" value="" style="whiteSpace=wrap;html=1;aspect=fixed;" vertex="1" parent="s2AOO2nK8_PHTesZww2k-1">
          <mxGeometry x="40" y="920" width="200" height="200" as="geometry" />
        </mxCell>
        <mxCell id="xqbh5o03ujRor4jRnx38-10" value="" style="whiteSpace=wrap;html=1;aspect=fixed;" vertex="1" parent="s2AOO2nK8_PHTesZww2k-1">
          <mxGeometry x="600" y="920" width="200" height="200" as="geometry" />
        </mxCell>
        <mxCell id="xqbh5o03ujRor4jRnx38-11" value="" style="whiteSpace=wrap;html=1;aspect=fixed;" vertex="1" parent="s2AOO2nK8_PHTesZww2k-1">
          <mxGeometry x="319" y="920" width="200" height="200" as="geometry" />
        </mxCell>
        <mxCell id="CWwLYsi3NSL7rHFfb4Ak-0" value="" style="rounded=1;whiteSpace=wrap;html=1;" vertex="1" parent="s2AOO2nK8_PHTesZww2k-1">
          <mxGeometry x="60" y="90" width="120" height="80" as="geometry" />
        </mxCell>
        <mxCell id="CWwLYsi3NSL7rHFfb4Ak-1" value="" style="rounded=1;whiteSpace=wrap;html=1;" vertex="1" parent="s2AOO2nK8_PHTesZww2k-1">
          <mxGeometry x="270" y="90" width="120" height="80" as="geometry" />
        </mxCell>
        <mxCell id="CWwLYsi3NSL7rHFfb4Ak-2" value="" style="rounded=1;whiteSpace=wrap;html=1;" vertex="1" parent="s2AOO2nK8_PHTesZww2k-1">
          <mxGeometry x="460" y="90" width="120" height="80" as="geometry" />
        </mxCell>
        <mxCell id="CWwLYsi3NSL7rHFfb4Ak-3" value="" style="rounded=1;whiteSpace=wrap;html=1;" vertex="1" parent="s2AOO2nK8_PHTesZww2k-1">
          <mxGeometry x="650" y="90" width="120" height="80" as="geometry" />
        </mxCell>
        <mxCell id="HqLUbAFjL4ZB3HEtsSi6-0" value="Videos" style="text;html=1;strokeColor=none;fillColor=none;align=center;verticalAlign=middle;whiteSpace=wrap;rounded=0;" vertex="1" parent="s2AOO2nK8_PHTesZww2k-1">
          <mxGeometry x="100" y="120" width="40" height="20" as="geometry" />
        </mxCell>
        <mxCell id="HqLUbAFjL4ZB3HEtsSi6-1" value="Explore" style="text;html=1;strokeColor=none;fillColor=none;align=center;verticalAlign=middle;whiteSpace=wrap;rounded=0;" vertex="1" parent="s2AOO2nK8_PHTesZww2k-1">
          <mxGeometry x="690" y="120" width="40" height="20" as="geometry" />
        </mxCell>
        <mxCell id="HqLUbAFjL4ZB3HEtsSi6-2" value="GIFs" style="text;html=1;strokeColor=none;fillColor=none;align=center;verticalAlign=middle;whiteSpace=wrap;rounded=0;" vertex="1" parent="s2AOO2nK8_PHTesZww2k-1">
          <mxGeometry x="500" y="120" width="40" height="20" as="geometry" />
        </mxCell>
        <mxCell id="HqLUbAFjL4ZB3HEtsSi6-3" value="Stories" style="text;html=1;strokeColor=none;fillColor=none;align=center;verticalAlign=middle;whiteSpace=wrap;rounded=0;" vertex="1" parent="s2AOO2nK8_PHTesZww2k-1">
          <mxGeometry x="309" y="120" width="40" height="20" as="geometry" />
        </mxCell>
      </root>
    </mxGraphModel>
  </diagram>
  <diagram id="34SvJ269_BXO6gCQETPS" name="Videos">
    <mxGraphModel dx="1422" dy="762" grid="1" gridSize="10" guides="1" tooltips="1" connect="1" arrows="1" fold="1" page="1" pageScale="1" pageWidth="827" pageHeight="1169" math="0" shadow="0">
      <root>
        <mxCell id="CLQ9P4pSg8xR7aixB0dO-0" />
        <mxCell id="CLQ9P4pSg8xR7aixB0dO-1" parent="CLQ9P4pSg8xR7aixB0dO-0" />
        <mxCell id="Vd9vVWv7LRTY6pSj_22l-0" value="" style="rounded=1;whiteSpace=wrap;html=1;" vertex="1" parent="CLQ9P4pSg8xR7aixB0dO-1">
          <mxGeometry x="309" y="60" width="210" height="40" as="geometry" />
        </mxCell>
        <mxCell id="2ebnEHNPSmFjxwR-pnL1-0" value="Escape" style="text;html=1;strokeColor=none;fillColor=none;align=center;verticalAlign=middle;whiteSpace=wrap;rounded=0;" vertex="1" parent="CLQ9P4pSg8xR7aixB0dO-1">
          <mxGeometry x="394" y="70" width="40" height="20" as="geometry" />
        </mxCell>
      </root>
    </mxGraphModel>
  </diagram>
</mxfile>
